<svg viewBox="0 0 65 65" fill="none" xmlns="http://www.w3.org/2000/svg"><defs></defs><path d="M32.5 65C50.45 65 65 50.45 65 32.5S50.45 0 32.5 0 0 14.55 0 32.5 14.55 65 32.5 65z" fill="#139DFF"></path><path d="M14.678 13.715l43.875 18.6-43.875 18.6v-37.2z" fill="#121521"></path><path d="M18.74 26.436h3.133v11.492H18.74V26.436zM36.615 37.937l-2.233-2.233c.488-.93.69-2.125.69-3.575 0-4-2.165-5.918-5.85-5.918-3.833 0-5.85 1.917-5.85 5.918 0 4.118 1.845 5.915 5.85 5.915a7.739 7.739 0 003.389-.63l2.3 2.3 1.704-1.777zm-10.17-5.808c0-1.823 1.07-2.857 2.776-2.857 1.706 0 2.789 1.034 2.772 2.857-.02 1.95-1.095 2.83-2.772 2.854-1.677.022-2.775-1.034-2.775-2.854z" fill="#fff"></path></svg>